<?xml version="1.0" encoding="utf-8"?>
<!-- Generator: Adobe Illustrator 21.0.2, SVG Export Plug-In . SVG Version: 6.00 Build 0)  -->
<svg version="1.1" id="Layer_1" xmlns="http://www.w3.org/2000/svg" xmlns:xlink="http://www.w3.org/1999/xlink" x="0px" y="0px"
	 viewBox="0 0 11 12" style="enable-background:new 0 0 11 12;" xml:space="preserve">
<style type="text/css">
	.st0{fill:#8A68AD;}
</style>
<g>
	<path class="st0" d="M10.2,5.4H8.6C8.5,4,7.3,2.8,5.8,2.6V1H5.2v1.6C3.7,2.8,2.5,4,2.4,5.4H0.8v0.6h1.7c0.2,1.5,1.3,2.6,2.8,2.7
		v1.7h0.6V8.8c1.5-0.1,2.6-1.3,2.8-2.7h1.7V5.4z M5.5,7.9c-1.2,0-2.2-1-2.2-2.2s1-2.2,2.2-2.2s2.2,1,2.2,2.2S6.7,7.9,5.5,7.9z"/>
	<circle class="st0" cx="5.6" cy="5.8" r="0.7"/>
</g>
</svg>
