<?xml version="1.0" encoding="utf-8"?>
<!-- Generator: Adobe Illustrator 21.0.2, SVG Export Plug-In . SVG Version: 6.00 Build 0)  -->
<svg version="1.1" id="Layer_1" xmlns="http://www.w3.org/2000/svg" xmlns:xlink="http://www.w3.org/1999/xlink" x="0px" y="0px"
	 viewBox="0 0 23.2 18.9" style="enable-background:new 0 0 23.2 18.9;" xml:space="preserve">
<style type="text/css">
	.st0{opacity:0.6;fill:#FF3E3E;enable-background:new    ;}
</style>
<path class="st0" d="M16,15.7c0,0.2-8.8,0.2-8.8,0c0-5.9-0.5-8,4.6-8C16.5,7.6,16,10.4,16,15.7z"/>
<path class="st0" d="M16.5,18.4H6.5c-0.6,0-1-0.3-1-0.8v-0.3c0-0.5,0.4-0.8,1-0.8h10.1c0.6,0,1,0.3,1,0.8v0.3
	C17.5,18.1,17.1,18.4,16.5,18.4z"/>
<path class="st0" d="M17.5,12.4c1.5,0,3,0,4.5,0c0.9,0,0.9-1.4,0-1.4c-1.5,0-3,0-4.5,0C16.6,11,16.6,12.4,17.5,12.4L17.5,12.4z"/>
<path class="st0" d="M1.2,12.4c1.5,0,3,0,4.5,0c0.9,0,0.9-1.4,0-1.4c-1.5,0-3,0-4.5,0C0.3,11,0.3,12.4,1.2,12.4L1.2,12.4z"/>
<path class="st0" d="M3.2,5.1c1.1,1.1,2.2,2.2,3.2,3.2c0.6,0.6,1.5-0.4,1-1C6.3,6.2,5.2,5.1,4.2,4.1C3.5,3.5,2.6,4.5,3.2,5.1
	L3.2,5.1z"/>
<path class="st0" d="M19.1,4.1c-1.1,1.1-2.2,2.2-3.2,3.2c-0.6,0.6,0.4,1.5,1,1c1.1-1.1,2.2-2.2,3.2-3.2C20.6,4.5,19.7,3.5,19.1,4.1
	L19.1,4.1z"/>
<path class="st0" d="M10.9,1.2c0,1.5,0,3,0,4.5c0,0.9,1.4,0.9,1.4,0c0-1.5,0-3,0-4.5C12.3,0.3,10.9,0.3,10.9,1.2L10.9,1.2z"/>
</svg>
