<?xml version="1.0" encoding="utf-8"?>
<!-- Generator: Adobe Illustrator 21.0.2, SVG Export Plug-In . SVG Version: 6.00 Build 0)  -->
<svg version="1.1" id="Layer_1" xmlns="http://www.w3.org/2000/svg" xmlns:xlink="http://www.w3.org/1999/xlink" x="0px" y="0px"
	 viewBox="0 0 55.5 28.2" style="enable-background:new 0 0 55.5 28.2;" xml:space="preserve">
<style type="text/css">
	.st0{fill:#8A68AD;}
	.st1{opacity:0.67;fill:none;stroke:#8A68AD;stroke-width:1.6404;stroke-miterlimit:10;enable-background:new    ;}
</style>
<circle class="st0" cx="27.8" cy="4.7" r="3.3"/>
<path class="st0" d="M29.8,7.8c-0.6,0.4-1.3,0.6-2,0.6s-1.4-0.2-2-0.6C23.6,9,22,12.1,22,14.6h11.7C33.7,12.1,32.1,9,29.8,7.8z"/>
<circle class="st0" cx="45.1" cy="13.3" r="4.4"/>
<path class="st0" d="M47.7,17.4c-0.8,0.5-1.7,0.8-2.7,0.8s-1.9-0.3-2.7-0.8c-3,1.6-5.1,5.7-5.1,9h15.6C52.9,23.1,50.7,19,47.7,17.4z
	"/>
<circle class="st0" cx="10.4" cy="13.3" r="4.4"/>
<path class="st0" d="M13.1,17.4c-0.8,0.5-1.7,0.8-2.7,0.8s-1.9-0.3-2.7-0.8c-3,1.6-5.1,5.7-5.1,9h15.6
	C18.2,23.1,16.1,19.1,13.1,17.4z"/>
<ellipse class="st1" cx="27.8" cy="17.6" rx="19.8" ry="5.9"/>
</svg>
