<?xml version="1.0" encoding="utf-8"?>
<!-- Generator: Adobe Illustrator 21.0.2, SVG Export Plug-In . SVG Version: 6.00 Build 0)  -->
<svg version="1.1" id="Layer_1" xmlns="http://www.w3.org/2000/svg" xmlns:xlink="http://www.w3.org/1999/xlink" x="0px" y="0px"
	 viewBox="0 0 20 20" style="enable-background:new 0 0 20 20;" xml:space="preserve">
<style type="text/css">
	.st0{fill:#8A68AD;}
</style>
<g>
	<g>
		<path class="st0" d="M3.4,6.5c4.2,0,8.4,0,12.6,0c1.9,0,1.9-2.6,0-2.6C11.8,4,7.6,4,3.4,4C1.4,4,1.4,6.5,3.4,6.5L3.4,6.5z"/>
	</g>
</g>
<g>
	<g>
		<path class="st0" d="M3.4,11.5c4.2,0,8.4,0,12.6,0c1.9,0,1.9-2.6,0-2.6C11.8,9,7.6,9,3.4,9C1.4,9,1.4,11.5,3.4,11.5L3.4,11.5z"/>
	</g>
</g>
<g>
	<g>
		<path class="st0" d="M3.4,16.5c4.2,0,8.4,0,12.6,0c1.9,0,1.9-2.6,0-2.6c-4.2,0-8.4,0-12.6,0C1.4,13.9,1.4,16.5,3.4,16.5L3.4,16.5z
			"/>
	</g>
</g>
</svg>
